<svg xmlns="http://www.w3.org/2000/svg" xmlns:svg="http://www.w3.org/2000/svg" id="svg1" width="24" height="24" fill="#e8eaed" version="1.1" viewBox="0 -960 960 960"><path id="path1" d="m 480,-120 c -28,0 -51.66667,-9.66667 -71,-29 -19.33333,-19.33333 -29,-43 -29,-71 0,-28 9.66667,-51.66667 29,-71 19.33333,-19.33333 43,-29 71,-29 28,0 51.66667,9.66667 71,29 19.33333,19.33333 29,43 29,71 0,28 -9.66667,51.66667 -29,71 -19.33333,19.33333 -43,29 -71,29 z"/><path id="path2" d="m 254,-346 -84,-86 c 39.33333,-39.33333 85.5,-70.5 138.5,-93.5 53,-23 110.16667,-34.5 171.5,-34.5 61.33333,0 118.5,11.66667 171.5,35 53,23.33333 99.16667,55 138.5,95 l -84,84 c -29.33333,-29.33333 -63.33333,-52.33333 -102,-69 -38.66667,-16.66667 -80,-25 -124,-25 -44,0 -85.33333,8.33333 -124,25 -38.66667,16.66667 -72.66667,39.66667 -102,69 z" style="fill:#666"/><path id="path3" d="M 84,-516 0,-600 c 61.333333,-62.66667 133,-111.66667 215,-147 82,-35.33333 170.33333,-53 265,-53 94.66667,0 183,17.66667 265,53 82,35.33333 153.66667,84.33333 215,147 l -84,84 C 824.66667,-567.33333 765.16667,-607.5 697.5,-636.5 629.83333,-665.5 557.33333,-680 480,-680 c -77.33333,0 -149.83333,14.5 -217.5,43.5 -67.66667,29 -127.16667,69.16667 -178.5,120.5 z" style="fill:#666"/></svg>